<svg width="61" height="61" viewBox="0 0 61 61" fill="none" xmlns="http://www.w3.org/2000/svg">
<rect x="0.0532227" y="0.407715" width="60" height="60" rx="30" fill="#52B2E2"/>
<path d="M47.5234 43.6258C44.9875 39.5343 41.0796 36.6005 36.519 35.2097C38.7748 33.9564 40.5275 32.0466 41.5078 29.7737C42.4882 27.5008 42.6419 24.9905 41.9455 22.6281C41.2491 20.2658 39.741 18.1821 37.6528 16.697C35.5647 15.212 33.0119 14.4077 30.3866 14.4077C27.7612 14.4077 25.2084 15.212 23.1203 16.697C21.0321 18.1821 19.524 20.2658 18.8276 22.6281C18.1312 24.9905 18.2849 27.5008 19.2653 29.7737C20.2456 32.0466 21.9983 33.9564 24.2541 35.2097C19.6935 36.5989 15.7856 39.5327 13.2498 43.6258C13.1568 43.7673 13.0951 43.9247 13.0684 44.0889C13.0416 44.253 13.0504 44.4204 13.0941 44.5814C13.1379 44.7423 13.2157 44.8934 13.323 45.0258C13.4303 45.1581 13.565 45.2691 13.719 45.3522C13.873 45.4352 14.0433 45.4886 14.2198 45.5092C14.3963 45.5298 14.5755 45.5172 14.7467 45.4722C14.9179 45.4272 15.0777 45.3506 15.2167 45.247C15.3557 45.1433 15.471 45.0148 15.5559 44.8689C18.6928 39.8093 24.2375 36.7885 30.3866 36.7885C36.5356 36.7885 42.0803 39.8093 45.2172 44.8689C45.3021 45.0148 45.4175 45.1433 45.5564 45.247C45.6954 45.3506 45.8552 45.4272 46.0264 45.4722C46.1976 45.5172 46.3768 45.5298 46.5533 45.5092C46.7298 45.4886 46.9001 45.4352 47.0541 45.3522C47.2081 45.2691 47.3428 45.1581 47.4501 45.0258C47.5574 44.8934 47.6353 44.7423 47.679 44.5814C47.7227 44.4204 47.7315 44.253 47.7048 44.0889C47.678 43.9247 47.6163 43.7673 47.5234 43.6258ZM21.0622 25.6002C21.0622 23.8791 21.6091 22.1967 22.6337 20.7656C23.6582 19.3346 25.1145 18.2193 26.8183 17.5606C28.5221 16.902 30.3969 16.7297 32.2056 17.0654C34.0144 17.4012 35.6758 18.23 36.9799 19.447C38.2839 20.664 39.1719 22.2145 39.5317 23.9025C39.8915 25.5906 39.7069 27.3402 39.0011 28.9303C38.2954 30.5204 37.1003 31.8795 35.5669 32.8357C34.0335 33.7918 32.2307 34.3022 30.3866 34.3022C27.9144 34.2997 25.5443 33.3821 23.7962 31.7507C22.0481 30.1193 21.0649 27.9074 21.0622 25.6002Z" fill="white"/>
</svg>
