<svg width="60" height="60" viewBox="0 0 60 60" fill="none" xmlns="http://www.w3.org/2000/svg">
<rect width="60" height="60" rx="30" fill="#52B2E2"/>
<path d="M47.4701 43.2181C44.9342 39.1266 41.0263 36.1928 36.4657 34.802C38.7216 33.5487 40.4743 31.6389 41.4546 29.366C42.4349 27.0931 42.5887 24.5827 41.8923 22.2204C41.1959 19.858 39.6878 17.7744 37.5996 16.2893C35.5115 14.8043 32.9587 14 30.3333 14C27.708 14 25.1552 14.8043 23.0671 16.2893C20.9789 17.7744 19.4708 19.858 18.7744 22.2204C18.078 24.5827 18.2317 27.0931 19.212 29.366C20.1924 31.6389 21.945 33.5487 24.2009 34.802C19.6403 36.1912 15.7324 39.125 13.1965 43.2181C13.1035 43.3596 13.0419 43.517 13.0151 43.6812C12.9884 43.8453 12.9972 44.0127 13.0409 44.1736C13.0846 44.3346 13.1625 44.4857 13.2698 44.618C13.3771 44.7504 13.5118 44.8614 13.6658 44.9444C13.8198 45.0275 13.9901 45.0809 14.1666 45.1015C14.3431 45.1221 14.5223 45.1095 14.6935 45.0645C14.8647 45.0194 15.0245 44.9429 15.1635 44.8392C15.3024 44.7356 15.4178 44.6071 15.5026 44.4612C18.6396 39.4016 24.1843 36.3808 30.3333 36.3808C36.4824 36.3808 42.0271 39.4016 45.164 44.4612C45.2489 44.6071 45.3642 44.7356 45.5032 44.8392C45.6422 44.9429 45.802 45.0194 45.9732 45.0645C46.1444 45.1095 46.3236 45.1221 46.5001 45.1015C46.6766 45.0809 46.8468 45.0275 47.0009 44.9444C47.1549 44.8614 47.2896 44.7504 47.3969 44.618C47.5042 44.4857 47.582 44.3346 47.6258 44.1736C47.6695 44.0127 47.6783 43.8453 47.6515 43.6812C47.6248 43.517 47.5631 43.3596 47.4701 43.2181ZM21.009 25.1925C21.009 23.4714 21.5559 21.789 22.5804 20.3579C23.605 18.9269 25.0613 17.8115 26.7651 17.1529C28.4689 16.4943 30.3437 16.3219 32.1524 16.6577C33.9612 16.9935 35.6226 17.8223 36.9266 19.0393C38.2307 20.2563 39.1187 21.8068 39.4785 23.4948C39.8383 25.1828 39.6536 26.9325 38.9479 28.5226C38.2422 30.1127 37.047 31.4718 35.5137 32.4279C33.9803 33.3841 32.1775 33.8945 30.3333 33.8945C27.8612 33.892 25.491 32.9744 23.743 31.343C21.9949 29.7116 21.0116 27.4997 21.009 25.1925Z" fill="white"/>
</svg>
