<svg width="122" height="128" viewBox="0 0 122 128" fill="none" xmlns="http://www.w3.org/2000/svg">
<path d="M20.2525 14.2167C23.9686 14.2167 26.9809 11.0342 26.9809 7.10834C26.9809 3.18251 23.9686 0 20.2525 0C17.762 0 15.5878 1.42949 14.4244 3.55417H13.5242C7.95024 3.55417 3.43165 8.32796 3.43165 14.2167V46.2042C1.57375 46.2042 0.0516922 47.799 0.220305 49.7538C1.00244 58.8212 4.76278 67.3587 10.9064 73.8493C15.4115 78.6087 20.9583 82.0143 26.9809 83.818V92.4085C26.9809 97.0516 29.79 101.001 33.7106 102.465C33.8539 116.566 44.7185 127.95 58.0995 127.95C71.57 127.95 82.4898 116.414 82.4898 102.182V87.9657C82.4898 80.6047 88.1379 74.6376 95.1055 74.6376C102.073 74.6376 107.721 80.6047 107.721 87.9657V96.5693C103.801 98.0329 100.993 101.983 100.993 106.625C100.993 112.514 105.511 117.288 111.085 117.288C116.659 117.288 121.178 112.514 121.178 106.625C121.178 101.983 118.369 98.0329 114.45 96.5693V87.9657C114.45 76.6791 105.789 67.5293 95.1055 67.5293C84.4222 67.5293 75.7615 76.6791 75.7615 87.9657V102.182C75.7615 112.488 67.854 120.842 58.0995 120.842C48.4339 120.842 40.5819 112.639 40.4396 102.464C44.3586 100.999 47.166 97.0502 47.166 92.4085V83.818C53.1885 82.0143 58.7357 78.6087 63.2407 73.8493C69.3843 67.3587 73.1445 58.8212 73.9266 49.7538C74.0955 47.799 72.5732 46.2042 70.7152 46.2042V14.2167C70.7152 8.32796 66.1968 3.55417 60.6227 3.55417H59.7224C58.5591 1.42949 56.3848 0 53.8943 0C50.1782 0 47.166 3.18251 47.166 7.10834C47.166 11.0342 50.1782 14.2167 53.8943 14.2167C56.3848 14.2167 58.5591 12.7872 59.7224 10.6625H60.6227C62.4807 10.6625 63.9868 12.2538 63.9868 14.2167V46.2042H64.6916C62.8336 46.2042 61.3514 47.8033 61.0947 49.7474C60.3697 55.234 57.9741 60.3605 54.2237 64.323C49.675 69.1283 43.5061 71.828 37.0734 71.828C30.6411 71.828 24.4719 69.1283 19.9235 64.323C16.1728 60.3605 13.7775 55.234 13.0525 49.7474C12.7956 47.8033 11.3134 46.2042 9.45544 46.2042H10.16V14.2167C10.16 12.2538 11.6662 10.6625 13.5242 10.6625H14.4244C15.5878 12.7872 17.762 14.2167 20.2525 14.2167Z" fill="white"/>
</svg>
