<svg width="232" height="151" viewBox="0 0 232 151" fill="none" xmlns="http://www.w3.org/2000/svg">
<g clip-path="url(#clip0_128_3421)">
<path d="M46.3986 142.554L96.6415 126.571L52.6498 90.2022L46.3986 142.554Z" fill="#52B2E2"/>
<ellipse cx="98" cy="75.5" rx="57" ry="58.5" fill="#52B2E2"/>
<path d="M120.844 74.8229H120.465C118.907 67.8625 112.692 62.6354 105.271 62.6354H100.531V60.9021C102.887 60.0625 104.594 57.8281 104.594 55.1875C104.594 51.8292 101.858 49.0937 98.5 49.0937C95.1417 49.0937 92.4062 51.8292 92.4062 55.1875C92.4062 57.8281 94.1125 60.0625 96.4688 60.9021V62.6354H91.7292C84.3083 62.6354 78.0927 67.8625 76.5354 74.8229H76.1562C73.9219 74.8229 72.0938 76.651 72.0938 78.8854V82.9479C72.0938 85.1823 73.9219 87.0104 76.1562 87.0104H76.901C78.499 91.9937 82.5344 95.8667 87.599 97.275C87.2198 98.074 86.9896 98.9406 86.9896 99.875C86.9896 100.999 87.8969 101.906 89.0208 101.906H107.979C109.103 101.906 110.01 100.999 110.01 99.875C110.01 98.9406 109.78 98.0604 109.401 97.275C114.466 95.8802 118.501 91.9937 120.099 87.0104H120.844C123.078 87.0104 124.906 85.1823 124.906 82.9479V78.8854C124.906 76.651 123.078 74.8229 120.844 74.8229ZM98.5 53.1562C99.624 53.1562 100.531 54.0635 100.531 55.1875C100.531 56.3115 99.624 57.2187 98.5 57.2187C97.376 57.2187 96.4688 56.3115 96.4688 55.1875C96.4688 54.0635 97.376 53.1562 98.5 53.1562ZM105.271 93.7812H91.7292C85.3781 93.7812 80.2188 88.6219 80.2188 82.2708V78.2083C80.2188 71.8573 85.3781 66.6979 91.7292 66.6979H105.271C111.622 66.6979 116.781 71.8573 116.781 78.2083V82.2708C116.781 88.6219 111.622 93.7812 105.271 93.7812Z" fill="black"/>
<path d="M91.0521 72.1146C88.8177 72.1146 86.9896 73.9427 86.9896 76.1771V80.2396C86.9896 82.4739 88.8177 84.3021 91.0521 84.3021C93.2865 84.3021 95.1146 82.4739 95.1146 80.2396V76.1771C95.1146 73.9427 93.2865 72.1146 91.0521 72.1146Z" fill="black"/>
<path d="M105.948 72.1146C103.714 72.1146 101.885 73.9427 101.885 76.1771V80.2396C101.885 82.4739 103.714 84.3021 105.948 84.3021C108.182 84.3021 110.01 82.4739 110.01 80.2396V76.1771C110.01 73.9427 108.182 72.1146 105.948 72.1146Z" fill="black"/>
<path d="M84.3219 53.0479L88.3844 54.4021C88.601 54.4698 88.8177 54.5104 89.0208 54.5104C89.874 54.5104 90.6594 53.9687 90.9438 53.1156C91.2958 52.0458 90.7271 50.8948 89.6573 50.5427L85.5948 49.1885C84.5385 48.8365 83.3875 49.4052 83.0219 50.475C82.6562 51.5448 83.2385 52.6958 84.3083 53.0479H84.3219Z" fill="black"/>
<path d="M84.9583 61.2812C85.175 61.2812 85.3917 61.2542 85.5948 61.1729L89.6573 59.8187C90.7271 59.4667 91.2958 58.3156 90.9438 57.2458C90.5917 56.176 89.4406 55.6073 88.3708 55.9594L84.3083 57.3135C83.2385 57.6656 82.6698 58.8167 83.0219 59.8865C83.3062 60.7396 84.0917 61.2812 84.9448 61.2812H84.9583Z" fill="black"/>
<path d="M107.979 54.5104C108.196 54.5104 108.412 54.4833 108.616 54.4021L112.678 53.0479C113.748 52.6958 114.317 51.5448 113.965 50.475C113.612 49.4052 112.461 48.8365 111.392 49.1885L107.329 50.5427C106.259 50.8948 105.691 52.0458 106.043 53.1156C106.327 53.9687 107.112 54.5104 107.966 54.5104H107.979Z" fill="black"/>
<path d="M107.343 59.8187L111.405 61.1729C111.622 61.2406 111.839 61.2812 112.042 61.2812C112.895 61.2812 113.68 60.7396 113.965 59.8865C114.317 58.8167 113.748 57.6656 112.678 57.3135L108.616 55.9594C107.559 55.6073 106.395 56.176 106.043 57.2458C105.691 58.3156 106.259 59.4667 107.329 59.8187H107.343Z" fill="black"/>
</g>
<defs>
<clipPath id="clip0_128_3421">
<rect width="232" height="151" fill="white"/>
</clipPath>
</defs>
</svg>
