<svg width="60" height="61" viewBox="0 0 60 61" fill="none" xmlns="http://www.w3.org/2000/svg">
<path d="M40 40.5L30 30.5L20 40.5" stroke="black" stroke-opacity="0.4" stroke-width="2" stroke-linecap="round" stroke-linejoin="round"/>
<path d="M30 30.5V53" stroke="black" stroke-opacity="0.4" stroke-width="2" stroke-linecap="round" stroke-linejoin="round"/>
<path d="M50.9751 46.475C53.4135 45.1456 55.3397 43.0422 56.4498 40.4965C57.5599 37.9509 57.7907 35.108 57.1057 32.4167C56.4206 29.7253 54.8589 27.3387 52.6668 25.6336C50.4748 23.9284 47.7773 23.0018 45.0001 23H41.8501C41.0934 20.0731 39.683 17.3558 37.725 15.0524C35.767 12.7491 33.3123 10.9196 30.5454 9.70148C27.7785 8.48337 24.7715 7.90836 21.7504 8.01967C18.7294 8.13097 15.7728 8.92571 13.1031 10.3441C10.4334 11.7625 8.11992 13.7677 6.3367 16.2089C4.55348 18.6501 3.34687 21.4638 2.80759 24.4384C2.26832 27.4131 2.41041 30.4713 3.22318 33.3831C4.03595 36.2949 5.49825 38.9846 7.50015 41.25" stroke="black" stroke-opacity="0.4" stroke-width="2" stroke-linecap="round" stroke-linejoin="round"/>
<path d="M40 40.5L30 30.5L20 40.5" stroke="black" stroke-opacity="0.4" stroke-width="2" stroke-linecap="round" stroke-linejoin="round"/>
</svg>
