<svg width="117" height="120" viewBox="0 0 117 120" fill="none" xmlns="http://www.w3.org/2000/svg">
<path d="M112.783 98.4L75.384 41.845V14.81H84.0725V0H31.0207V14.825H39.7804V41.86L2.30989 98.4C0.908819 100.506 0.112935 102.945 0.00643737 105.459C-0.10006 107.973 0.486789 110.469 1.7049 112.682C2.92301 114.896 4.7271 116.744 6.9263 118.032C9.12549 119.32 11.638 120 14.1981 120H100.849C103.414 119.996 105.93 119.312 108.132 118.019C110.334 116.726 112.139 114.873 113.359 112.655C114.578 110.437 115.165 107.937 115.058 105.418C114.952 102.899 114.155 100.456 112.753 98.345L112.788 98.4H112.783ZM108.18 109.91C107.467 111.201 106.413 112.279 105.129 113.03C103.845 113.782 102.379 114.179 100.885 114.18H14.1981C12.6973 114.182 11.2239 113.785 9.93411 113.031C8.64427 112.277 7.58607 111.194 6.87166 109.897C6.15725 108.599 5.81327 107.136 5.87618 105.662C5.93909 104.189 6.40654 102.759 7.22898 101.525L7.20863 101.555L45.6101 43.555V14.8H69.4475V43.57L107.808 101.57C108.673 102.825 109.192 104.375 109.192 106.045C109.192 107.47 108.816 108.81 108.154 109.97L108.175 109.93L108.18 109.91Z" fill="#52B2E2" fill-opacity="0.5"/>
<path d="M73.3133 61.755H41.82L13.0532 105.245C12.9041 105.465 12.8196 105.72 12.8088 105.984C12.798 106.248 12.8615 106.509 12.9922 106.74L12.9871 106.735C13.2414 107.17 13.7094 107.46 14.2487 107.465H100.89C101.146 107.465 101.397 107.398 101.618 107.27C101.839 107.143 102.021 106.96 102.146 106.74L102.151 106.735C102.282 106.505 102.346 106.244 102.334 105.981C102.322 105.717 102.236 105.463 102.085 105.245L102.09 105.25L73.3133 61.755Z" fill="#52B2E2" fill-opacity="0.5"/>
</svg>
