<svg width="119" height="120" viewBox="0 0 119 120" fill="none" xmlns="http://www.w3.org/2000/svg">
<path d="M22.3876 3C22.3876 1.34316 23.7686 0 25.4722 0C27.1759 0 28.5569 1.34316 28.5569 3V21C28.5569 22.6569 27.1759 24 25.4722 24C23.7686 24 22.3876 22.6569 22.3876 21V3Z" fill="#2A5F71"/>
<path d="M71.7422 3C71.7422 1.34316 73.1232 0 74.8268 0C76.5305 0 77.9115 1.34316 77.9115 3V21C77.9115 22.6569 76.5305 24 74.8268 24C73.1232 24 71.7422 22.6569 71.7422 21V3Z" fill="#2A5F71"/>
<path fill-rule="evenodd" clip-rule="evenodd" d="M28.5569 57H22.3875V63H28.5569V57ZM22.3875 51C18.9802 51 16.2182 53.6862 16.2182 57V63C16.2182 66.3138 18.9802 69 22.3875 69H28.5569C31.9642 69 34.7262 66.3138 34.7262 63V57C34.7262 53.6862 31.9642 51 28.5569 51H22.3875Z" fill="#2A5F71"/>
<path fill-rule="evenodd" clip-rule="evenodd" d="M53.2344 57H47.0651V63H53.2344V57ZM47.0651 51C43.6577 51 40.8957 53.6862 40.8957 57V63C40.8957 66.3138 43.6577 69 47.0651 69H53.2344C56.6418 69 59.4038 66.3138 59.4038 63V57C59.4038 53.6862 56.6418 51 53.2344 51H47.0651Z" fill="#2A5F71"/>
<path fill-rule="evenodd" clip-rule="evenodd" d="M77.9115 57H71.7421V63H77.9115V57ZM71.7421 51C68.3348 51 65.5728 53.6862 65.5728 57V63C65.5728 66.3138 68.3348 69 71.7421 69H77.9115C81.3188 69 84.0808 66.3138 84.0808 63V57C84.0808 53.6862 81.3188 51 77.9115 51H71.7421Z" fill="#2A5F71"/>
<path fill-rule="evenodd" clip-rule="evenodd" d="M28.5569 81H22.3875V87H28.5569V81ZM22.3875 75C18.9802 75 16.2182 77.6862 16.2182 81V87C16.2182 90.3138 18.9802 93 22.3875 93H28.5569C31.9642 93 34.7262 90.3138 34.7262 87V81C34.7262 77.6862 31.9642 75 28.5569 75H22.3875Z" fill="#2A5F71"/>
<path fill-rule="evenodd" clip-rule="evenodd" d="M53.2344 81H47.0651V87H53.2344V81ZM47.0651 75C43.6577 75 40.8957 77.6862 40.8957 81V87C40.8957 90.3138 43.6577 93 47.0651 93H53.2344C56.6418 93 59.4038 90.3138 59.4038 87V81C59.4038 77.6862 56.6418 75 53.2344 75H47.0651Z" fill="#2A5F71"/>
<path fill-rule="evenodd" clip-rule="evenodd" d="M13.1335 18H87.1657C90.573 18 93.335 20.6862 93.335 24V72C95.4653 72 97.5326 72.2625 99.5044 72.756V24C99.5044 17.3726 93.98 12 87.1657 12H13.1335C6.31899 12 0.794769 17.3726 0.794769 24V96C0.794769 102.627 6.31899 108 13.1335 108H71.9591C70.8545 106.143 69.9985 104.129 69.435 102H13.1335C9.72623 102 6.96412 99.3138 6.96412 96V24C6.96412 20.6862 9.72623 18 13.1335 18Z" fill="#2A5F71"/>
<path d="M0.794769 24C0.794769 17.3726 6.31899 12 13.1335 12H87.1657C93.98 12 99.5044 17.3726 99.5044 24V45H0.794769V24Z" fill="#2A5F71"/>
<path fill-rule="evenodd" clip-rule="evenodd" d="M87.1657 18H13.1335C9.72623 18 6.96412 20.6862 6.96412 24V39H93.335V24C93.335 20.6862 90.573 18 87.1657 18ZM13.1335 12C6.31899 12 0.794769 17.3726 0.794769 24V45H99.5044V24C99.5044 17.3726 93.98 12 87.1657 12H13.1335Z" fill="#2A5F71"/>
<path fill-rule="evenodd" clip-rule="evenodd" d="M96.4197 45H3.87949V39H96.4197V45Z" fill="#2A5F71"/>
<path fill-rule="evenodd" clip-rule="evenodd" d="M93.3352 114C103.557 114 111.843 105.941 111.843 96C111.843 86.0589 103.557 78 93.3352 78C83.1135 78 74.8271 86.0589 74.8271 96C74.8271 105.941 83.1135 114 93.3352 114ZM93.3352 120C106.964 120 118.013 109.255 118.013 96C118.013 82.7451 106.964 72 93.3352 72C79.7062 72 68.6578 82.7451 68.6578 96C68.6578 109.255 79.7062 120 93.3352 120Z" fill="#2A5F71"/>
<path fill-rule="evenodd" clip-rule="evenodd" d="M93.3348 81.5361C95.0385 81.5361 96.4195 82.8792 96.4195 84.5361V97.4304L103.982 102.536C105.381 103.48 105.728 105.35 104.756 106.711C103.785 108.072 101.863 108.409 100.463 107.465L90.2501 100.57V84.5361C90.2501 82.8792 91.6311 81.5361 93.3348 81.5361Z" fill="#2A5F71"/>
</svg>
