<svg width="141" height="140" viewBox="0 0 141 140" fill="none" xmlns="http://www.w3.org/2000/svg">
<path fill-rule="evenodd" clip-rule="evenodd" d="M15.1621 35.0116C15.5996 42.8604 17.8338 47.7196 21.1063 50.715C20.2868 51.3194 19.6495 52.1376 19.2642 53.0801C18.8789 54.0226 18.7604 55.0529 18.9217 56.0583C20.59 66.6604 24.7638 89.0837 33.3213 114.36C33.6552 115.451 34.3304 116.406 35.2477 117.084C36.1649 117.763 37.2757 118.129 38.4167 118.129C39.5576 118.129 40.6684 117.763 41.5857 117.084C42.5029 116.406 43.1782 115.451 43.5121 114.36C52.0667 89.0837 56.2433 66.6604 57.9117 56.0583C58.0733 55.0529 57.955 54.0225 57.5696 53.0799C57.1843 52.1374 56.5468 51.3191 55.7271 50.715C58.9996 47.7196 61.2338 42.8604 61.6713 35.0116C61.6889 34.6306 61.6281 34.25 61.4925 33.8935C61.3569 33.537 61.1495 33.2122 60.8831 32.9392C60.6167 32.6662 60.297 32.4509 59.9439 32.3067C59.5908 32.1625 59.2118 32.0924 58.8304 32.1008C54.0792 32.1708 50.3079 32.4596 47.3679 33.4483C46.1517 30.2429 43.6988 27.2183 40.0092 24.4591C39.5492 24.1159 38.9906 23.9305 38.4167 23.9305C37.8427 23.9305 37.2842 24.1159 36.8242 24.4591C33.1638 27.1979 30.7196 30.1933 29.4946 33.3696C26.6363 32.5266 22.8971 32.1912 18.0117 32.1066C17.6301 32.0971 17.2507 32.1661 16.8969 32.3094C16.5432 32.4527 16.2227 32.6673 15.9555 32.9398C15.6882 33.2122 15.4798 33.5368 15.3434 33.8932C15.2069 34.2496 15.1452 34.6303 15.1621 35.0116ZM43.9029 40.7662L41.9108 35.5162C41.3596 34.0608 40.2833 32.4246 38.4167 30.7037C36.5675 32.4071 35.4942 34.0287 34.9371 35.4696L33.0033 40.4862L27.8467 38.9637C26.3242 38.5146 24.2475 38.2171 21.3279 38.0566C22.1942 43.68 24.2796 46.0571 26.1783 47.285C28.8967 49.0437 32.8575 49.5775 38.3292 49.5833H38.5042C43.9788 49.5775 47.9367 49.0437 50.6521 47.285C52.5538 46.0571 54.6421 43.6771 55.5083 38.0391C52.6792 38.1879 50.6929 38.4825 49.2258 38.9754L43.9029 40.7662ZM24.7258 55.4166H52.1075C51.2704 60.6871 49.8208 68.8333 47.5283 78.75H35.5V84.5833H46.1313C44.1188 92.6975 41.5813 101.739 38.4167 111.212C37.406 108.183 36.4385 105.14 35.5146 102.083H38.4167V96.25H33.8025C31.3461 87.5813 29.2087 78.8254 27.3946 70H35.5V64.1666H26.2454C25.6973 61.2573 25.1908 58.3404 24.7258 55.4166Z" fill="white"/>
<path d="M112.039 81.7542C112.789 81.9415 113.435 82.4192 113.833 83.0821C114.231 83.7449 114.349 84.5388 114.163 85.2892C113.351 88.6318 111.635 91.6867 109.202 94.119C106.77 96.5513 103.715 98.2674 100.372 99.0792C99.6274 99.2519 98.8442 99.1251 98.1917 98.7259C97.5392 98.3268 97.0696 97.6873 96.8841 96.9453C96.6986 96.2032 96.812 95.418 97.1999 94.7587C97.5878 94.0995 98.2191 93.619 98.9579 93.4208C101.275 92.8657 103.394 91.68 105.078 89.9951C106.763 88.3102 107.949 86.1918 108.504 83.8746C108.692 83.1249 109.17 82.4805 109.833 82.0829C110.496 81.6853 111.289 81.5671 112.039 81.7542Z" fill="white"/>
<path fill-rule="evenodd" clip-rule="evenodd" d="M95.7292 61.3287C92.4975 53.7658 93.0575 45.7333 98.8121 39.9787L94.6879 35.8546C87.8921 42.6504 86.7137 51.5375 88.9917 59.7071C75.645 53.6666 61.75 64.7733 61.75 81.6666C61.75 97.7754 76.1146 110.833 93.8333 110.833C111.552 110.833 125.917 97.7754 125.917 81.6666C125.917 63.525 109.89 52.0596 95.7292 61.3287ZM93.8333 70.1779L90.1875 67.2612C84.7683 62.9271 79.4308 63.1691 75.3883 65.6658C71.1125 68.3054 67.5833 73.9579 67.5833 81.6666C67.5833 94.042 78.8008 105 93.8333 105C108.866 105 120.083 94.042 120.083 81.6666C120.083 73.9608 116.554 68.3083 112.278 65.6658C108.236 63.1691 102.895 62.927 97.4762 67.2641L93.8333 70.1779Z" fill="white"/>
<path d="M99.6667 52.5C108.417 52.5 114.25 46.6666 114.25 37.9166C105.5 37.9166 99.6667 43.75 99.6667 52.5Z" fill="white"/>
</svg>
