<svg width="72" height="70" viewBox="0 0 72 70" fill="none" xmlns="http://www.w3.org/2000/svg">
<path fill-rule="evenodd" clip-rule="evenodd" d="M0.384827 35C0.384827 25.7174 4.15579 16.815 10.8681 10.2513C17.5805 3.68749 26.6844 0 36.1771 0C45.6698 0 54.7737 3.68749 61.4861 10.2513C68.1984 16.815 71.9694 25.7174 71.9694 35C71.9694 44.2826 68.1984 53.185 61.4861 59.7487C54.7737 66.3125 45.6698 70 36.1771 70C26.6844 70 17.5805 66.3125 10.8681 59.7487C4.15579 53.185 0.384827 44.2826 0.384827 35ZM34.1346 49.98L54.7414 24.7893L51.019 21.8773L33.4473 43.3487L21.0012 33.208L17.9469 36.792L34.1346 49.98Z" fill="#388192" fill-opacity="0.71"/>
</svg>
